<?xml version="1.0" standalone="no"?>
<!DOCTYPE svg PUBLIC "-//W3C//DTD SVG 20010904//EN"
 "http://www.w3.org/TR/2001/REC-SVG-20010904/DTD/svg10.dtd">
<svg version="1.0" xmlns="http://www.w3.org/2000/svg"
 width="1675.000000pt" height="1675.000000pt" viewBox="0 0 1675.000000 1675.000000"
 preserveAspectRatio="xMidYMid meet">
<metadata>
Created by potrace 1.14, written by Peter Selinger 2001-2017
</metadata>
<g transform="translate(0.000000,1675.000000) scale(0.100000,-0.100000)"
fill="#000000" stroke="none">
<path d="M10977 12854 c-1 -1 -85 -5 -187 -9 -102 -3 -207 -8 -235 -10 -27 -2
-88 -6 -135 -9 -213 -15 -445 -38 -520 -51 -14 -3 -50 -7 -80 -10 -30 -3 -62
-8 -70 -10 -8 -2 -35 -7 -60 -10 -25 -2 -56 -7 -70 -10 -14 -3 -41 -8 -60 -11
-31 -5 -186 -36 -248 -49 -12 -3 -31 -7 -43 -10 -11 -2 -29 -7 -39 -10 -10 -3
-27 -7 -37 -9 -60 -12 -197 -51 -313 -90 -719 -237 -1244 -616 -1718 -1243
-67 -89 -246 -353 -302 -447 -19 -32 -44 -72 -55 -89 -29 -45 -223 -385 -277
-487 -91 -170 -123 -229 -246 -455 -121 -223 -167 -309 -240 -445 -19 -36 -43
-78 -52 -95 -10 -16 -39 -70 -65 -120 -50 -94 -88 -166 -135 -250 -28 -50 -65
-119 -135 -250 -21 -38 -66 -122 -100 -185 -34 -63 -81 -151 -105 -195 -24
-44 -55 -102 -70 -130 -121 -223 -134 -247 -310 -572 -69 -127 -128 -229 -132
-227 -3 2 -34 55 -69 117 -34 61 -73 132 -87 157 -43 78 -68 123 -112 205 -23
44 -46 85 -50 90 -4 6 -24 41 -44 78 -20 37 -46 84 -58 105 -11 20 -33 60 -48
87 -15 28 -37 67 -48 87 -12 21 -38 68 -58 105 -21 37 -103 187 -184 333 -81
146 -175 317 -210 380 -35 63 -79 142 -97 175 -19 33 -37 68 -40 78 -3 9 -9
17 -14 17 -5 0 -9 5 -9 11 0 5 -33 70 -73 142 -41 73 -90 161 -109 197 -52 95
-85 155 -136 245 -25 44 -56 100 -69 125 -13 25 -27 52 -32 60 -6 8 -29 49
-52 90 -55 98 -172 213 -260 257 -167 82 -81 77 -1349 78 -619 0 -1147 -3
-1174 -8 -188 -33 -321 -209 -309 -407 l4 -55 -43 -20 c-24 -11 -65 -41 -91
-68 -122 -120 -146 -303 -61 -462 12 -22 82 -151 157 -286 75 -136 148 -269
163 -295 15 -27 30 -53 34 -59 4 -5 31 -55 60 -110 29 -55 64 -117 77 -137 13
-21 23 -40 23 -42 0 -2 17 -35 39 -73 21 -37 52 -93 68 -123 17 -30 101 -183
188 -340 87 -157 181 -328 210 -380 29 -52 64 -116 79 -142 14 -27 38 -69 52
-95 15 -27 60 -109 102 -183 41 -74 90 -164 109 -200 19 -36 38 -69 43 -75 4
-5 29 -50 55 -100 27 -49 68 -125 92 -168 24 -42 54 -96 67 -120 71 -129 187
-338 209 -378 14 -25 37 -66 50 -90 13 -24 34 -62 47 -84 12 -22 37 -67 55
-100 17 -33 67 -123 110 -200 83 -150 117 -212 166 -302 18 -32 35 -62 39 -68
4 -5 29 -50 55 -100 27 -49 90 -164 140 -255 51 -91 107 -192 125 -225 18 -33
62 -111 97 -174 34 -62 63 -115 63 -117 0 -3 21 -39 47 -82 171 -283 396 -452
728 -544 l80 -23 980 -2 c1049 -3 1036 -3 1208 48 133 39 308 135 402 220 108
98 199 206 233 277 9 17 19 32 24 32 4 0 8 5 8 11 0 6 24 54 54 108 29 53 67
121 83 151 16 30 39 71 50 90 11 20 37 67 57 105 20 39 41 77 46 85 6 8 49 87
96 175 83 155 116 214 174 320 15 28 43 79 62 115 20 36 47 85 60 110 14 25
39 70 55 100 17 30 82 150 145 265 63 116 137 251 163 300 26 50 51 95 55 100
4 6 24 42 44 80 20 39 41 77 46 85 11 18 137 249 205 375 27 50 78 144 115
210 37 66 86 156 110 200 50 91 125 229 206 378 31 56 70 127 87 157 55 102
100 184 202 370 56 102 121 220 143 262 23 42 55 99 72 128 16 28 30 53 30 55
0 3 44 85 98 182 520 940 525 947 647 1089 93 109 191 204 320 313 48 40 256
176 320 209 131 67 310 136 410 158 277 63 532 64 790 4 28 -6 57 -13 65 -15
8 -2 60 -19 115 -38 264 -90 528 -259 745 -477 137 -137 180 -189 312 -375
124 -175 288 -509 357 -725 50 -158 99 -356 115 -464 4 -21 8 -41 10 -45 2 -3
6 -33 10 -66 3 -33 8 -71 11 -85 26 -127 26 -691 1 -826 -2 -10 -7 -44 -11
-74 -4 -30 -9 -64 -11 -75 -2 -10 -6 -37 -9 -60 -3 -22 -13 -67 -21 -100 -8
-33 -16 -69 -18 -80 -13 -68 -86 -315 -106 -360 -5 -11 -23 -56 -40 -99 -32
-82 -79 -156 -184 -286 -70 -87 -237 -256 -316 -320 -30 -25 -57 -47 -60 -51
-11 -13 -188 -128 -240 -155 -30 -16 -57 -31 -60 -34 -9 -11 -114 -59 -185
-85 -134 -51 -264 -86 -375 -100 -30 -4 -64 -10 -75 -12 -11 -3 -931 -6 -2045
-8 -1911 -2 -2028 -3 -2075 -20 -163 -58 -228 -121 -346 -340 -30 -55 -59
-109 -66 -120 -7 -11 -15 -27 -19 -35 -4 -8 -26 -49 -49 -90 -23 -41 -59 -106
-80 -145 -45 -82 -147 -267 -268 -483 -47 -84 -91 -175 -97 -203 -37 -151 46
-321 188 -387 l57 -27 2385 0 c1312 0 2437 3 2500 8 120 8 178 13 270 22 30 3
75 8 100 11 46 4 109 13 145 20 11 2 40 6 65 10 88 11 167 25 435 78 192 38
760 210 880 266 11 5 65 27 120 49 475 187 1046 525 1410 835 33 28 73 62 89
76 87 74 280 263 373 364 87 97 158 178 167 195 5 9 16 22 23 30 26 25 130
166 200 271 94 140 151 236 239 407 40 79 102 191 137 250 96 161 212 404 267
558 18 50 36 99 41 110 34 83 99 331 134 510 3 17 10 64 16 105 5 41 12 86 14
100 13 82 19 212 19 410 1 232 -6 345 -28 493 -3 20 -8 54 -11 75 -3 20 -7 44
-10 52 -2 8 -6 31 -9 50 -29 184 -118 477 -218 715 -136 325 -372 712 -592
970 -28 33 -60 70 -71 84 -25 30 -159 174 -201 215 -92 91 -217 208 -274 256
-36 30 -67 57 -70 60 -16 16 -121 98 -220 171 -307 228 -628 417 -1016 595
-162 74 -627 247 -724 269 -8 2 -53 15 -100 29 -310 91 -797 183 -1113 210
-23 2 -76 7 -117 11 -171 15 -232 17 -603 19 -213 1 -388 1 -390 0z"/>
</g>
</svg>
